<svg width="790" height="227" viewBox="0 0 790 227" fill="none" xmlns="http://www.w3.org/2000/svg">
<path d="M789.626 203.832C789.626 206.816 789.038 209.771 787.895 212.528C786.752 215.284 785.077 217.789 782.965 219.898C780.853 222.007 778.346 223.679 775.588 224.819C772.829 225.958 769.873 226.544 766.888 226.54H22.768C16.7369 226.547 10.9502 224.158 6.68051 219.899C2.41085 215.641 0.00785999 209.861 0 203.832V22.7382C0.00785638 16.706 2.4099 10.9234 6.6787 6.66017C10.9475 2.39694 16.7341 0.00156579 22.768 0H766.882C769.869 -1.01559e-07 772.826 0.588185 775.585 1.73096C778.344 2.87374 780.851 4.54872 782.963 6.66024C785.074 8.77175 786.749 11.2784 787.891 14.0371C789.034 16.7958 789.621 19.7525 789.62 22.7382L789.626 203.832Z" fill="black"/>
<path d="M164.815 117.441C164.643 98.331 180.466 89.0341 181.19 88.6013C172.229 75.5394 158.339 73.7547 153.458 73.6124C141.792 72.3851 130.477 80.591 124.534 80.591C118.473 80.591 109.322 73.731 99.4589 73.9326C86.7672 74.1283 74.8939 81.4745 68.382 92.8821C54.943 116.142 64.9659 150.324 77.8415 169.125C84.2822 178.339 91.8083 188.614 101.659 188.252C111.297 187.861 114.897 182.116 126.527 182.116C138.05 182.116 141.431 188.252 151.477 188.021C161.82 187.861 168.332 178.772 174.548 169.481C181.991 158.933 184.98 148.533 185.098 147.999C184.861 147.916 165.017 140.339 164.815 117.441ZM145.837 61.2442C151.02 54.7637 154.567 45.9471 153.583 37C146.08 37.332 136.698 42.188 131.295 48.5262C126.515 54.1115 122.245 63.2661 123.348 71.8752C131.775 72.5037 140.428 67.624 145.837 61.2442Z" fill="white"/>
<path d="M313.632 185.073H300.163L292.785 161.896H267.141L260.113 185.073H247L272.413 106.168H288.106L313.632 185.073ZM290.561 152.172L283.889 131.568C283.183 129.464 281.855 124.507 279.909 116.704H279.672C278.889 120.06 277.638 125.017 275.924 131.568L269.365 152.172H290.561ZM378.857 155.925C378.857 165.602 376.23 173.25 370.97 178.865C366.261 183.863 360.407 186.36 353.427 186.36C345.889 186.36 340.468 183.674 337.176 178.29V208.143H324.532V146.877C324.532 140.8 324.372 134.569 324.064 128.177H335.184L335.889 137.195H336.127C340.343 130.4 346.743 127.003 355.33 127.003C362.044 127.003 367.648 129.653 372.132 134.96C376.61 140.278 378.857 147.263 378.857 155.925ZM365.976 156.388C365.976 150.85 364.73 146.285 362.228 142.686C359.494 138.944 355.823 137.071 351.22 137.071C348.101 137.071 345.266 138.114 342.733 140.172C340.195 142.247 338.535 144.956 337.758 148.312C337.411 149.567 337.214 150.859 337.17 152.16V161.653C337.17 165.786 338.44 169.278 340.978 172.136C343.516 174.982 346.814 176.411 350.87 176.411C355.633 176.411 359.339 174.567 361.99 170.908C364.647 167.238 365.976 162.4 365.976 156.388ZM444.315 155.925C444.315 165.602 441.687 173.25 436.427 178.865C431.712 183.863 425.864 186.36 418.878 186.36C411.34 186.36 405.919 183.674 402.628 178.29V208.143H389.983V146.877C389.983 140.8 389.823 134.569 389.515 128.177H400.635L401.341 137.195H401.578C405.789 130.4 412.188 127.003 420.782 127.003C427.489 127.003 433.094 129.653 437.589 134.96C442.061 140.278 444.315 147.263 444.315 155.925ZM431.427 156.388C431.427 150.85 430.176 146.285 427.673 142.686C424.939 138.944 421.28 137.071 416.678 137.071C413.558 137.071 410.723 138.114 408.179 140.172C405.641 142.247 403.986 144.956 403.209 148.312C402.823 149.878 402.616 151.152 402.616 152.16V161.653C402.616 165.786 403.891 169.278 406.417 172.136C408.956 174.976 412.253 176.411 416.322 176.411C421.09 176.411 424.797 174.567 427.442 170.908C430.099 167.238 431.427 162.4 431.427 156.388ZM517.5 162.94C517.5 169.657 515.151 175.118 510.484 179.334C505.348 183.935 498.177 186.241 488.985 186.241C480.492 186.241 473.684 184.605 468.548 181.326L471.471 170.79C477.017 174.074 483.107 175.711 489.738 175.711C494.506 175.711 498.213 174.632 500.858 172.491C503.509 170.345 504.849 167.475 504.849 163.894C504.849 160.686 503.74 158.001 501.564 155.813C499.375 153.631 495.758 151.597 490.675 149.729C476.856 144.577 469.941 137.041 469.941 127.128C469.941 120.653 472.385 115.352 477.26 111.208C482.135 107.069 488.599 105 496.641 105C503.823 105 509.807 106.251 514.558 108.747L511.385 119.052C506.913 116.633 501.866 115.423 496.22 115.423C491.76 115.423 488.261 116.52 485.758 118.702C483.653 120.653 482.585 123.031 482.585 125.853C482.585 128.966 483.801 131.551 486.221 133.578C488.32 135.446 492.152 137.48 497.691 139.662C504.488 142.401 509.481 145.591 512.678 149.255C515.898 152.919 517.5 157.491 517.5 162.94ZM559.412 137.664H545.475V165.287C545.475 172.313 547.93 175.818 552.853 175.818C555.112 175.818 556.986 175.628 558.469 175.231L558.819 184.83C556.328 185.761 553.048 186.229 548.986 186.229C543.992 186.229 540.09 184.705 537.273 181.658C534.467 178.61 533.056 173.505 533.056 166.319V137.64H524.753V128.153H533.056V117.736L545.475 113.989V128.153H559.412V137.664ZM622.171 156.157C622.171 164.902 619.668 172.082 614.674 177.697C609.449 183.478 602.498 186.36 593.834 186.36C585.471 186.36 578.823 183.591 573.865 178.059C568.907 172.515 566.428 165.531 566.428 157.105C566.428 148.289 568.99 141.067 574.096 135.452C579.215 129.831 586.106 127.021 594.771 127.021C603.121 127.021 609.829 129.796 614.905 135.333C619.757 140.705 622.171 147.642 622.171 156.157ZM609.064 156.447C609.064 151.235 607.937 146.765 605.677 143.024C603.026 138.506 599.231 136.247 594.314 136.247C589.249 136.247 585.365 138.506 582.72 143.024C580.454 146.765 579.327 151.312 579.327 156.684C579.327 161.902 580.454 166.384 582.72 170.114C585.454 174.632 589.267 176.891 594.207 176.891C599.041 176.891 602.831 174.584 605.571 170.001C607.895 166.171 609.064 161.671 609.064 156.447ZM663.288 139.294C661.973 139.057 660.639 138.94 659.303 138.944C654.855 138.944 651.415 140.616 648.995 143.984C646.896 146.949 645.84 150.696 645.84 155.22V185.073H633.196V146.095C633.207 140.122 633.084 134.15 632.828 128.183H643.841L644.304 139.069H644.654C645.994 135.328 648.094 132.31 650.976 130.051C653.614 128.077 656.82 127.008 660.115 127.003C661.284 127.003 662.339 127.086 663.276 127.234L663.288 139.294ZM719.837 153.933C719.87 155.855 719.715 157.775 719.375 159.667H681.442C681.584 165.287 683.423 169.592 686.946 172.557C690.142 175.201 694.276 176.529 699.353 176.529C704.969 176.529 710.093 175.64 714.702 173.843L716.682 182.612C711.297 184.96 704.94 186.128 697.603 186.128C688.778 186.128 681.851 183.531 676.81 178.349C671.781 173.161 669.26 166.189 669.26 157.455C669.26 148.882 671.603 141.737 676.294 136.039C681.205 129.956 687.841 126.914 696.192 126.914C704.394 126.914 710.603 129.956 714.82 136.039C718.159 140.859 719.837 146.836 719.837 153.933ZM707.78 150.654C707.869 146.901 707.039 143.67 705.325 140.936C703.137 137.415 699.768 135.66 695.255 135.66C691.121 135.66 687.752 137.373 685.19 140.812C683.085 143.545 681.834 146.83 681.448 150.642L707.78 150.654Z" fill="white"/>
<path d="M262.092 78.1364C258.575 78.1364 255.532 77.9644 253 77.6739V39.5258C256.542 38.9788 260.121 38.7092 263.705 38.7194C278.206 38.7194 284.883 45.8522 284.883 57.4792C284.883 70.8909 276.996 78.1364 262.092 78.1364ZM264.215 43.611C262.258 43.611 260.591 43.7296 259.209 44.0142V73.0136C259.957 73.1322 261.392 73.1855 263.408 73.1855C272.909 73.1855 278.318 67.7782 278.318 57.6512C278.318 48.6211 273.425 43.611 264.215 43.611ZM305.694 78.4269C297.522 78.4269 292.226 72.3258 292.226 64.0428C292.226 55.41 297.634 49.2555 306.157 49.2555C314.211 49.2555 319.626 55.0661 319.626 63.5862C319.626 72.3258 314.045 78.4269 305.694 78.4269ZM305.932 53.7972C301.442 53.7972 298.566 57.9951 298.566 63.8649C298.566 69.6221 301.501 73.8199 305.872 73.8199C310.243 73.8199 313.179 69.3316 313.179 63.7463C313.179 58.0544 310.302 53.7972 305.932 53.7972ZM366.229 49.8307L357.481 77.7925H351.782L348.158 65.6496C347.257 62.6794 346.507 59.6655 345.91 56.6195H345.792C345.335 59.6671 344.469 62.7206 343.55 65.6496L339.695 77.7925H333.936L325.705 49.8307H332.092L335.259 63.1238C336.006 66.2899 336.635 69.2782 337.157 72.1005H337.275C337.732 69.7466 338.479 66.8058 339.576 63.1831L343.55 49.8366H348.615L352.416 62.8985C353.336 66.0646 354.083 69.1715 354.664 72.1064H354.83C355.234 69.2308 355.868 66.1773 356.728 62.8985L360.126 49.8366L366.229 49.8307ZM398.433 77.7925H392.217V61.7364C392.217 56.7915 390.32 54.3131 386.577 54.3131C382.894 54.3131 380.362 57.4792 380.362 61.1612V77.7925H374.147V57.8231C374.147 55.3507 374.087 52.7004 373.915 49.8247H379.383L379.674 54.1411H379.846C381.518 51.1529 384.911 49.2555 388.712 49.2555C394.584 49.2555 398.439 53.7439 398.439 61.0486L398.433 77.7925ZM415.573 77.7925H409.351V37H415.573V77.7925ZM438.234 78.4269C430.067 78.4269 424.765 72.3258 424.765 64.0428C424.765 55.41 430.174 49.2555 438.69 49.2555C446.75 49.2555 452.159 55.0661 452.159 63.5862C452.165 72.3258 446.578 78.4269 438.234 78.4269ZM438.465 53.7972C433.975 53.7972 431.099 57.9951 431.099 63.8649C431.099 69.6221 434.041 73.8199 438.4 73.8199C442.777 73.8199 445.706 69.3316 445.706 63.7463C445.712 58.0544 442.842 53.7972 438.465 53.7972ZM476.665 77.7925L476.214 74.5729H476.048C474.15 77.164 471.38 78.4269 467.869 78.4269C462.858 78.4269 459.3 74.9168 459.3 70.1972C459.3 63.2957 465.284 59.7264 475.645 59.7264V59.2105C475.645 55.5286 473.693 53.6846 469.838 53.6846C467.081 53.6846 464.661 54.3783 462.532 55.7598L461.269 51.6746C463.854 50.0619 467.081 49.2555 470.87 49.2555C478.177 49.2555 481.866 53.1095 481.866 60.8233V71.1222C481.866 73.9444 481.991 76.1323 482.269 77.7984L476.665 77.7925ZM475.811 63.8649C468.907 63.8649 465.444 65.5369 465.444 69.5035C465.444 72.4384 467.229 73.8733 469.708 73.8733C472.869 73.8733 475.811 71.4601 475.811 68.1813V63.8649ZM512.047 77.7925L511.757 73.3041H511.585C509.8 76.6956 506.799 78.4269 502.606 78.4269C495.862 78.4269 490.869 72.4977 490.869 64.1554C490.869 55.41 496.046 49.2496 503.116 49.2496C506.858 49.2496 509.509 50.5125 511.004 53.0502H511.128V37H517.349V70.2565C517.349 72.9602 517.415 75.492 517.581 77.7925H512.047ZM511.128 61.3391C511.128 57.4259 508.536 54.0878 504.581 54.0878C499.972 54.0878 497.155 58.1729 497.155 63.9242C497.155 69.5628 500.079 73.4227 504.456 73.4227C508.364 73.4227 511.128 70.0253 511.128 65.9994V61.3391ZM556.795 78.4269C548.628 78.4269 543.332 72.3258 543.332 64.0428C543.332 55.41 548.741 49.2555 557.257 49.2555C565.317 49.2555 570.726 55.0661 570.726 63.5862C570.732 72.3258 565.151 78.4269 556.795 78.4269ZM557.026 53.7972C552.542 53.7972 549.666 57.9951 549.666 63.8649C549.666 69.6221 552.602 73.8199 556.967 73.8199C561.343 73.8199 564.273 69.3316 564.273 63.7463C564.285 58.0544 561.409 53.7972 557.026 53.7972ZM604.151 77.7925H597.93V61.7364C597.93 56.7915 596.032 54.3131 592.29 54.3131C588.607 54.3131 586.08 57.4792 586.08 61.1612V77.7925H579.859V57.8231C579.859 55.3507 579.8 52.7004 579.628 49.8247H585.096L585.386 54.1411H585.558C587.225 51.1529 590.623 49.2496 594.419 49.2496C600.29 49.2496 604.151 53.738 604.151 61.0426V77.7925ZM645.969 54.491H639.131V68.0687C639.131 71.5254 640.329 73.2507 642.748 73.2507C643.845 73.2507 644.765 73.1322 645.506 72.9602L645.678 77.6798C644.474 78.1423 642.861 78.3735 640.856 78.3735C635.958 78.3735 633.028 75.6698 633.028 68.5904V54.491H628.948V49.8307H633.028V44.7079L639.131 42.8639V49.8247H645.969V54.491ZM678.872 77.7925H672.663V61.8549C672.663 56.8507 670.771 54.319 667.023 54.319C663.802 54.319 660.801 56.5069 660.801 60.9359V77.7925H654.592V37H660.801V53.7972H660.926C662.883 50.7497 665.718 49.2496 669.336 49.2496C675.254 49.2496 678.872 53.8506 678.872 61.1612V77.7925ZM712.582 65.3057H693.93C694.049 70.6004 697.554 73.5887 702.743 73.5887C705.501 73.5887 708.039 73.1262 710.281 72.2665L711.248 76.5829C708.603 77.7332 705.489 78.3083 701.866 78.3083C693.118 78.3083 687.94 72.7823 687.94 64.2147C687.94 55.6412 693.242 49.1962 701.166 49.1962C708.312 49.1962 712.796 54.491 712.796 62.4894C712.836 63.4333 712.764 64.3786 712.582 65.3057ZM706.883 60.8766C706.883 56.5602 704.706 53.5126 700.733 53.5126C697.162 53.5126 694.339 56.6195 693.936 60.8766H706.883Z" fill="white"/>
</svg>
