<svg width="800" height="238" viewBox="0 0 800 238" fill="none" xmlns="http://www.w3.org/2000/svg">
<path d="M770.37 237.037H29.6296C13.037 237.037 0 224 0 207.407V29.6296C0 13.037 13.037 0 29.6296 0H770.37C786.963 0 800 13.037 800 29.6296V207.407C800 224 786.963 237.037 770.37 237.037Z" fill="black"/>
<path d="M280.889 77.9257C280.889 82.6664 279.704 86.8146 276.741 89.7775C273.185 93.3331 269.037 95.1109 263.704 95.1109C258.37 95.1109 254.222 93.3331 250.667 89.7775C247.111 86.222 245.333 82.0738 245.333 76.7405C245.333 71.4072 247.111 67.259 250.667 63.7035C254.222 60.1479 258.37 58.3701 263.704 58.3701C266.074 58.3701 268.444 58.9627 270.815 60.1479C273.185 61.3331 274.963 62.5183 276.148 64.296L273.185 67.259C270.815 64.296 267.852 63.1109 263.704 63.1109C260.148 63.1109 256.593 64.296 254.222 67.259C251.259 69.6294 250.074 73.1849 250.074 77.3331C250.074 81.4812 251.259 85.0368 254.222 87.4072C257.185 89.7775 260.148 91.5553 263.704 91.5553C267.852 91.5553 270.815 90.3701 273.778 87.4072C275.555 85.6294 276.741 83.259 276.741 80.296H263.704V75.5553H280.889V77.9257ZM308.148 63.1109H292.148V74.3701H306.963V78.5183H292.148V89.7775H308.148V94.5183H287.407V58.9627H308.148V63.1109ZM327.704 94.5183H322.963V63.1109H312.889V58.9627H337.778V63.1109H327.704V94.5183ZM354.963 94.5183V58.9627H359.704V94.5183H354.963ZM379.852 94.5183H375.111V63.1109H365.037V58.9627H389.333V63.1109H379.259V94.5183H379.852ZM436.148 89.7775C432.592 93.3331 428.444 95.1109 423.111 95.1109C417.778 95.1109 413.63 93.3331 410.074 89.7775C406.518 86.222 404.741 82.0738 404.741 76.7405C404.741 71.4072 406.518 67.259 410.074 63.7035C413.63 60.1479 417.778 58.3701 423.111 58.3701C428.444 58.3701 432.592 60.1479 436.148 63.7035C439.704 67.259 441.481 71.4072 441.481 76.7405C441.481 82.0738 439.704 86.222 436.148 89.7775ZM413.63 86.8146C416 89.1849 419.555 90.9627 423.111 90.9627C426.667 90.9627 430.222 89.7775 432.592 86.8146C434.963 84.4442 436.741 80.8886 436.741 76.7405C436.741 72.5923 435.555 69.0368 432.592 66.6664C430.222 64.296 426.667 62.5183 423.111 62.5183C419.555 62.5183 416 63.7035 413.63 66.6664C411.259 69.0368 409.481 72.5923 409.481 76.7405C409.481 80.8886 410.667 84.4442 413.63 86.8146ZM448 94.5183V58.9627H453.333L470.518 86.8146V58.9627H475.259V94.5183H470.518L452.148 65.4812V94.5183H448Z" fill="white" stroke="white" stroke-width="1.18519" stroke-miterlimit="10"/>
<path d="M403.556 146.666C389.333 146.666 378.074 157.333 378.074 172.148C378.074 186.37 389.333 197.629 403.556 197.629C417.778 197.629 429.037 186.963 429.037 172.148C429.037 156.74 417.778 146.666 403.556 146.666ZM403.556 186.963C395.852 186.963 389.333 180.444 389.333 171.555C389.333 162.666 395.852 156.148 403.556 156.148C411.259 156.148 417.778 162.074 417.778 171.555C417.778 180.444 411.259 186.963 403.556 186.963ZM348.445 146.666C334.222 146.666 322.963 157.333 322.963 172.148C322.963 186.37 334.222 197.629 348.445 197.629C362.667 197.629 373.926 186.963 373.926 172.148C373.926 156.74 362.667 146.666 348.445 146.666ZM348.445 186.963C340.741 186.963 334.222 180.444 334.222 171.555C334.222 162.666 340.741 156.148 348.445 156.148C356.148 156.148 362.667 162.074 362.667 171.555C362.667 180.444 356.148 186.963 348.445 186.963ZM282.667 154.37V165.037H308.148C307.556 170.963 305.185 175.703 302.222 178.666C298.667 182.222 292.741 186.37 282.667 186.37C266.667 186.37 254.815 173.926 254.815 157.926C254.815 141.926 267.259 129.481 282.667 129.481C290.963 129.481 297.482 133.037 302.222 137.185L309.926 129.481C303.408 123.555 295.111 118.814 283.259 118.814C261.926 118.814 243.556 136.592 243.556 157.926C243.556 179.259 261.926 197.037 283.259 197.037C295.111 197.037 303.408 193.481 310.519 185.777C317.63 178.666 320 168.592 320 160.889C320 158.518 320 156.148 319.408 154.37H282.667ZM551.704 162.666C549.333 156.74 543.408 146.666 530.37 146.666C517.333 146.666 506.667 156.74 506.667 172.148C506.667 186.37 517.333 197.629 531.556 197.629C542.815 197.629 549.926 190.518 552.296 186.37L544 180.444C541.037 184.592 537.482 187.555 531.556 187.555C525.63 187.555 522.074 185.185 519.111 179.851L552.889 165.629L551.704 162.666ZM517.333 170.963C517.333 161.481 525.037 156.148 530.37 156.148C534.519 156.148 538.667 158.518 539.852 161.481L517.333 170.963ZM489.482 195.259H500.741V121.185H489.482V195.259ZM471.704 152C468.741 149.037 464 146.074 458.074 146.074C445.63 146.074 433.778 157.333 433.778 171.555C433.778 185.777 445.037 196.444 458.074 196.444C464 196.444 468.741 193.481 471.111 190.518H471.704V194.074C471.704 203.555 466.37 208.889 458.074 208.889C451.556 208.889 446.815 204.148 445.63 200L436.148 204.148C439.111 210.666 446.222 218.963 458.667 218.963C471.704 218.963 482.37 211.259 482.37 192.889V147.851H471.704V152ZM458.667 186.963C450.963 186.963 444.445 180.444 444.445 171.555C444.445 162.666 450.963 156.148 458.667 156.148C466.37 156.148 472.296 162.666 472.296 171.555C472.296 180.444 466.37 186.963 458.667 186.963ZM603.259 121.185H576.593V195.259H587.852V167.407H603.259C615.704 167.407 627.556 158.518 627.556 144.296C627.556 130.074 615.704 121.185 603.259 121.185ZM603.852 156.74H587.852V131.259H603.852C612.148 131.259 616.889 138.37 616.889 143.703C616.296 150.222 611.556 156.74 603.852 156.74ZM672 146.074C663.704 146.074 655.408 149.629 652.445 157.333L662.519 161.481C664.889 157.333 668.445 156.148 672.593 156.148C678.519 156.148 683.852 159.703 684.445 165.629V166.222C682.667 165.037 677.926 163.259 673.185 163.259C662.519 163.259 651.852 169.185 651.852 179.851C651.852 189.926 660.741 196.444 670.222 196.444C677.926 196.444 681.482 192.889 684.445 189.333H685.037V195.259H695.704V166.814C694.519 153.777 684.445 146.074 672 146.074ZM670.815 186.963C667.259 186.963 661.926 185.185 661.926 180.444C661.926 174.518 668.445 172.74 673.778 172.74C678.519 172.74 680.889 173.926 683.852 175.111C682.667 182.222 676.741 186.963 670.815 186.963ZM733.037 147.851L720.593 179.851H720L706.963 147.851H695.111L714.667 192.889L703.407 217.777H714.667L744.889 147.851H733.037ZM633.482 195.259H644.741V121.185H633.482V195.259Z" fill="white"/>
<path d="M76.3704 45.0908C74.5926 46.8686 74 49.8316 74 53.3871V184.35C74 187.906 75.1852 190.869 76.963 192.646L77.5556 193.239L151.037 119.757V118.572L76.3704 45.0908Z" fill="url(#paint0_linear_21532_44)"/>
<path d="M174.741 144.647L150.444 120.35V118.573L174.741 94.2764L175.333 94.869L204.37 111.462C212.667 116.202 212.667 123.906 204.37 128.647L174.741 144.647Z" fill="url(#paint1_linear_21532_44)"/>
<path d="M175.333 144.054L150.444 119.165L76.3704 193.239C79.3333 196.202 83.4815 196.202 88.8148 193.832L175.333 144.054Z" fill="url(#paint2_linear_21532_44)"/>
<path d="M175.333 94.2758L88.8148 45.0906C83.4815 42.1276 79.3333 42.7202 76.3704 45.6832L150.444 119.165L175.333 94.2758Z" fill="url(#paint3_linear_21532_44)"/>
<path opacity="0.2" d="M174.741 143.461L88.8148 192.054C84.0741 195.016 79.9259 194.424 76.963 192.054L76.3704 192.646L76.963 193.239C79.9259 195.609 84.0741 196.202 88.8148 193.239L174.741 143.461Z" fill="black"/>
<path opacity="0.12" d="M76.3704 192.054C74.5926 190.276 74 187.313 74 183.758V184.35C74 187.906 75.1852 190.869 76.963 192.647V192.054H76.3704ZM204.37 126.869L174.741 143.461L175.333 144.054L204.37 127.461C208.519 125.091 210.296 122.128 210.296 119.165C210.296 122.128 207.926 124.498 204.37 126.869Z" fill="black"/>
<path opacity="0.25" d="M88.8148 45.6833L204.37 111.461C207.926 113.831 210.296 116.202 210.296 119.165C210.296 116.202 208.519 113.239 204.37 110.869L88.8148 45.0907C80.5185 40.35 74 43.9055 74 53.387V53.9796C74 45.0907 80.5185 40.9426 88.8148 45.6833Z" fill="white"/>
<defs>
<linearGradient id="paint0_linear_21532_44" x1="143.926" y1="52.2612" x2="44.4711" y2="151.71" gradientUnits="userSpaceOnUse">
<stop stop-color="#00A0FF"/>
<stop offset="0.007" stop-color="#00A1FF"/>
<stop offset="0.26" stop-color="#00BEFF"/>
<stop offset="0.512" stop-color="#00D2FF"/>
<stop offset="0.76" stop-color="#00DFFF"/>
<stop offset="1" stop-color="#00E3FF"/>
</linearGradient>
<linearGradient id="paint1_linear_21532_44" x1="215.238" y1="119.171" x2="71.8488" y2="119.171" gradientUnits="userSpaceOnUse">
<stop stop-color="#FFE000"/>
<stop offset="0.409" stop-color="#FFBD00"/>
<stop offset="0.775" stop-color="#FFA500"/>
<stop offset="1" stop-color="#FF9C00"/>
</linearGradient>
<linearGradient id="paint2_linear_21532_44" x1="161.864" y1="132.771" x2="27.0015" y2="267.633" gradientUnits="userSpaceOnUse">
<stop stop-color="#FF3A44"/>
<stop offset="1" stop-color="#C31162"/>
</linearGradient>
<linearGradient id="paint3_linear_21532_44" x1="57.9822" y1="1.6891" x2="118.207" y2="61.9143" gradientUnits="userSpaceOnUse">
<stop stop-color="#32A071"/>
<stop offset="0.069" stop-color="#2DA771"/>
<stop offset="0.476" stop-color="#15CF74"/>
<stop offset="0.801" stop-color="#06E775"/>
<stop offset="1" stop-color="#00F076"/>
</linearGradient>
</defs>
</svg>
