<svg xmlns="http://www.w3.org/2000/svg" version="1.1" xmlns:xlink="http://www.w3.org/1999/xlink" width="42" height="42" x="0" y="0" viewBox="0 0 50 50" style="enable-background:new 0 0 512 512" xml:space="preserve" class=""><g><path fill="#BFBFBF" d="M46.842 37.68v1.68c-.06.05-16.57 9.65-16.57 9.65-.43.25-1.03.33-1.59.28l.01-1.67c.56.06 1.15-.04 1.58-.29 0 0 16.51-9.6 16.57-9.65z" opacity="1" data-original="#bfbfbf"></path><g fill="#787677"><path d="M45.496 39.066v.488l-1.3.757v-.488zM43.919 39.986v.488l-1.3.757v-.488z" fill="#787677" opacity="1" data-original="#787677"></path></g><path fill="#B0AFB0" d="m3.643 32.512 24.035 14.816c.285.163.643.243 1.01.277v1.686c-.369-.034-.727-.114-1.01-.279L3.643 34.197c-.362-.207-.537-.476-.537-.744v-1.685c0 .269.175.538.537.744z" opacity="1" data-original="#b0afb0"></path><path fill="#E8E8E8" d="M45.998 36.668c.72.415.723 1.086.009 1.5l-15.737 9.16c-.714.416-1.872.416-2.59 0L3.641 32.519c-.712-.411-.716-1.082-.001-1.497l14.793-8.667c.715-.415 1.872-.415 2.585-.004z" opacity="1" data-original="#e8e8e8"></path><path fill="#787677" d="M18.396 1.65c.29-.166.693-.145 1.137.113l24.313 14.04c.889.517 1.602 1.747 1.591 2.77l-.051 19.955 1.457-.848.051-19.955c0-1.023-.702-2.252-1.591-2.769L20.98.916c-.434-.258-.837-.279-1.127-.114z" opacity="1" data-original="#787677"></path><path fill="#4F4D4D" d="M43.848 15.805c.884.51 1.595 1.748 1.592 2.764l-.057 19.962L17.87 22.646l.057-19.962c.003-1.016.718-1.43 1.602-.92z" opacity="1" data-original="#4f4d4d"></path><path fill="#FFFFFF" d="M44.406 18.566c.002-.65-.51-1.54-1.074-1.866L18.96 2.631l-.057 19.42 25.45 14.693z" opacity="1" data-original="#ffffff"></path><path fill="#686868" d="M20.214 25.465v.174l-1.587.922v-.174z" opacity="1" data-original="#686868"></path><path fill="#4F4D4D" d="M18.628 26.387v.174l-1.593-.92v-.173z" opacity="1" data-original="#4f4d4d"></path><path fill="#929393" d="m20.214 25.465-1.586.922-1.593-.919 1.587-.922z" opacity="1" data-original="#929393"></path><path fill="#686868" d="M22.205 26.615v.174l-1.586.922v-.174z" opacity="1" data-original="#686868"></path><path fill="#4F4D4D" d="M20.619 27.537v.174l-1.593-.92v-.173z" opacity="1" data-original="#4f4d4d"></path><path fill="#929393" d="m22.205 26.615-1.586.922-1.592-.92 1.586-.921z" opacity="1" data-original="#929393"></path><path fill="#686868" d="M24.197 27.765v.174l-1.587.922v-.174z" opacity="1" data-original="#686868"></path><path fill="#4F4D4D" d="M22.61 28.687v.174l-1.597-.922v-.174z" opacity="1" data-original="#4f4d4d"></path><path fill="#929393" d="m24.197 27.765-1.587.922-1.596-.922 1.586-.922z" opacity="1" data-original="#929393"></path><path fill="#686868" d="M26.184 28.912v.174l-1.587.922v-.174z" opacity="1" data-original="#686868"></path><path fill="#4F4D4D" d="M24.597 29.834v.174l-1.592-.92v-.173z" opacity="1" data-original="#4f4d4d"></path><path fill="#929393" d="m26.184 28.912-1.587.922-1.592-.92 1.586-.921z" opacity="1" data-original="#929393"></path><path fill="#686868" d="M28.175 30.062v.173l-1.587.922v-.173z" opacity="1" data-original="#686868"></path><path fill="#4F4D4D" d="M26.589 30.984v.173l-1.593-.919v-.174z" opacity="1" data-original="#4f4d4d"></path><path fill="#929393" d="m28.175 30.062-1.586.922-1.592-.92 1.586-.922z" opacity="1" data-original="#929393"></path><path fill="#686868" d="M30.162 31.209v.174l-1.587.922v-.174z" opacity="1" data-original="#686868"></path><path fill="#4F4D4D" d="M28.576 32.13v.174l-1.593-.919v-.174z" opacity="1" data-original="#4f4d4d"></path><path fill="#929393" d="m30.162 31.209-1.586.922-1.593-.92 1.587-.921z" opacity="1" data-original="#929393"></path><path fill="#686868" d="M32.153 32.359v.173l-1.587.922v-.174z" opacity="1" data-original="#686868"></path><path fill="#4F4D4D" d="M30.567 33.28v.174l-1.593-.92v-.173z" opacity="1" data-original="#4f4d4d"></path><path fill="#929393" d="m32.153 32.359-1.586.921-1.592-.919 1.586-.922z" opacity="1" data-original="#929393"></path><path fill="#686868" d="m36.132 34.655-.001.174-1.582.92v-.174z" opacity="1" data-original="#686868"></path><path fill="#4F4D4D" d="M34.55 35.575v.173l-3.585-2.068.001-.174z" opacity="1" data-original="#4f4d4d"></path><path fill="#929393" d="m36.132 34.655-1.582.92-3.584-2.07 1.582-.919z" opacity="1" data-original="#929393"></path><path fill="#686868" d="M38.123 35.805v.174l-1.587.922v-.174z" opacity="1" data-original="#686868"></path><path fill="#4F4D4D" d="M36.537 36.727v.174l-1.598-.922v-.174z" opacity="1" data-original="#4f4d4d"></path><path fill="#929393" d="m38.123 35.805-1.586.922-1.597-.922 1.586-.922z" opacity="1" data-original="#929393"></path><path fill="#686868" d="M40.11 36.952v.174l-1.587.922v-.174z" opacity="1" data-original="#686868"></path><path fill="#4F4D4D" d="M38.523 37.874v.174l-1.592-.92v-.173z" opacity="1" data-original="#4f4d4d"></path><path fill="#929393" d="m40.11 36.952-1.587.922-1.592-.92 1.587-.921z" opacity="1" data-original="#929393"></path><path fill="#686868" d="M42.101 38.102v.174l-1.587.922v-.174z" opacity="1" data-original="#686868"></path><path fill="#4F4D4D" d="M40.515 39.024v.174l-1.593-.92v-.173z" opacity="1" data-original="#4f4d4d"></path><path fill="#929393" d="m42.101 38.102-1.586.922-1.592-.92 1.586-.921z" opacity="1" data-original="#929393"></path><path fill="#686868" d="M18.15 26.665v.174l-1.582.919v-.174z" opacity="1" data-original="#686868"></path><path fill="#4F4D4D" d="M16.568 27.584v.174l-1.593-.92v-.173z" opacity="1" data-original="#4f4d4d"></path><path fill="#929393" d="m18.15 26.665-1.582.92-1.592-.92 1.582-.92z" opacity="1" data-original="#929393"></path><path fill="#686868" d="M20.141 27.815v.173l-1.582.92v-.174z" opacity="1" data-original="#686868"></path><path fill="#4F4D4D" d="m18.56 28.734-.001.174-1.592-.92v-.173z" opacity="1" data-original="#4f4d4d"></path><path fill="#929393" d="m20.141 27.815-1.582.919-1.592-.92 1.582-.919z" opacity="1" data-original="#929393"></path><path fill="#686868" d="M22.133 28.964v.174l-1.583.92v-.174z" opacity="1" data-original="#686868"></path><path fill="#4F4D4D" d="M20.55 29.884v.174l-1.597-.922.001-.174z" opacity="1" data-original="#4f4d4d"></path><path fill="#929393" d="m22.133 28.964-1.582.92-1.597-.922 1.582-.92z" opacity="1" data-original="#929393"></path><path fill="#686868" d="m24.12 30.111-.001.174-1.582.92v-.174z" opacity="1" data-original="#686868"></path><path fill="#4F4D4D" d="M22.538 31.03v.175l-1.593-.92v-.173z" opacity="1" data-original="#4f4d4d"></path><path fill="#929393" d="m24.12 30.111-1.582.92-1.593-.92 1.582-.919z" opacity="1" data-original="#929393"></path><path fill="#686868" d="M26.11 31.261v.174l-1.581.92v-.174z" opacity="1" data-original="#686868"></path><path fill="#4F4D4D" d="M24.529 32.18v.174l-1.593-.919v-.174z" opacity="1" data-original="#4f4d4d"></path><path fill="#929393" d="m26.11 31.261-1.581.92-1.592-.92 1.582-.919z" opacity="1" data-original="#929393"></path><path fill="#686868" d="M28.098 32.408v.174l-1.583.92v-.174z" opacity="1" data-original="#686868"></path><path fill="#4F4D4D" d="M26.516 33.328v.173l-1.593-.919v-.174z" opacity="1" data-original="#4f4d4d"></path><path fill="#929393" d="m28.098 32.408-1.582.92-1.592-.92 1.582-.919z" opacity="1" data-original="#929393"></path><path fill="#686868" d="m30.09 33.558-.001.174-1.582.92v-.175z" opacity="1" data-original="#686868"></path><path fill="#4F4D4D" d="M28.507 34.477v.174l-1.592-.92v-.173z" opacity="1" data-original="#4f4d4d"></path><path fill="#929393" d="m30.09 33.558-1.583.92-1.592-.92 1.582-.92z" opacity="1" data-original="#929393"></path><path fill="#686868" d="M32.076 34.705v.174l-1.582.92v-.175z" opacity="1" data-original="#686868"></path><path fill="#4F4D4D" d="M30.494 35.624v.174L28.9 34.88v-.174z" opacity="1" data-original="#4f4d4d"></path><path fill="#929393" d="m32.076 34.705-1.582.92-1.592-.92 1.582-.92z" opacity="1" data-original="#929393"></path><path fill="#686868" d="M34.067 35.855v.174l-1.582.919v-.174z" opacity="1" data-original="#686868"></path><path fill="#4F4D4D" d="m32.486 36.774-.001.174-1.592-.92v-.173z" opacity="1" data-original="#4f4d4d"></path><path fill="#929393" d="m34.067 35.855-1.582.92-1.592-.92 1.582-.92z" opacity="1" data-original="#929393"></path><path fill="#686868" d="M36.059 37.005v.173l-1.583.92v-.174z" opacity="1" data-original="#686868"></path><path fill="#4F4D4D" d="M34.477 37.924v.174l-1.597-.922v-.174z" opacity="1" data-original="#4f4d4d"></path><path fill="#929393" d="m36.059 37.005-1.582.919-1.597-.922 1.582-.92z" opacity="1" data-original="#929393"></path><path fill="#686868" d="M38.046 38.152v.174l-1.583.919v-.174z" opacity="1" data-original="#686868"></path><path fill="#4F4D4D" d="M36.464 39.071v.174l-1.593-.92v-.173z" opacity="1" data-original="#4f4d4d"></path><path fill="#929393" d="m38.046 38.152-1.582.92-1.593-.92 1.582-.92z" opacity="1" data-original="#929393"></path><path fill="#686868" d="M40.037 39.301v.174l-1.582.92v-.174z" opacity="1" data-original="#686868"></path><path fill="#4F4D4D" d="M38.455 40.22v.175l-1.593-.92v-.173z" opacity="1" data-original="#4f4d4d"></path><path fill="#929393" d="m40.037 39.301-1.582.92-1.592-.92 1.582-.919z" opacity="1" data-original="#929393"></path><path fill="#686868" d="M16.09 27.867v.174l-3.646 2.119v-.174z" opacity="1" data-original="#686868"></path><path fill="#4F4D4D" d="M12.444 29.986v.174l-1.597-.922v-.174z" opacity="1" data-original="#4f4d4d"></path><path fill="#929393" d="m16.09 27.867-3.646 2.119-1.596-.922 3.646-2.119z" opacity="1" data-original="#929393"></path><path fill="#686868" d="M18.077 29.014v.174l-1.582.92v-.175z" opacity="1" data-original="#686868"></path><path fill="#4F4D4D" d="M16.495 29.933v.174l-1.592-.92v-.173z" opacity="1" data-original="#4f4d4d"></path><path fill="#929393" d="m18.077 29.014-1.582.92-1.592-.92 1.582-.92z" opacity="1" data-original="#929393"></path><path fill="#686868" d="M20.069 30.164v.174l-1.583.919v-.174z" opacity="1" data-original="#686868"></path><path fill="#4F4D4D" d="M18.487 31.083v.174l-1.597-.922v-.174z" opacity="1" data-original="#4f4d4d"></path><path fill="#929393" d="m20.069 30.164-1.582.92-1.597-.923 1.582-.919z" opacity="1" data-original="#929393"></path><path fill="#686868" d="M22.055 31.311v.174l-1.582.919v-.174z" opacity="1" data-original="#686868"></path><path fill="#4F4D4D" d="M20.474 32.23v.174l-1.593-.92v-.173z" opacity="1" data-original="#4f4d4d"></path><path fill="#929393" d="m22.055 31.311-1.581.92-1.593-.92 1.582-.92z" opacity="1" data-original="#929393"></path><path fill="#686868" d="M24.047 32.46v.174l-1.582.92v-.174z" opacity="1" data-original="#686868"></path><path fill="#4F4D4D" d="M22.465 33.38v.174l-1.593-.92v-.173z" opacity="1" data-original="#4f4d4d"></path><path fill="#929393" d="m24.047 32.46-1.582.92-1.592-.92 1.582-.919z" opacity="1" data-original="#929393"></path><path fill="#686868" d="M26.034 33.608v.174l-1.582.919v-.174z" opacity="1" data-original="#686868"></path><path fill="#4F4D4D" d="M24.452 34.527v.174l-1.593-.92v-.173z" opacity="1" data-original="#4f4d4d"></path><path fill="#929393" d="m26.034 33.608-1.582.92-1.592-.92 1.582-.92z" opacity="1" data-original="#929393"></path><path fill="#686868" d="M28.025 34.758v.173l-1.582.92v-.174z" opacity="1" data-original="#686868"></path><path fill="#4F4D4D" d="M26.443 35.677v.174l-1.592-.92v-.174z" opacity="1" data-original="#4f4d4d"></path><path fill="#929393" d="m28.025 34.758-1.582.919-1.592-.92 1.582-.919z" opacity="1" data-original="#929393"></path><path fill="#686868" d="M30.012 35.905v.173l-1.582.92v-.174z" opacity="1" data-original="#686868"></path><path fill="#4F4D4D" d="M28.43 36.824v.174l-1.592-.92v-.173z" opacity="1" data-original="#4f4d4d"></path><path fill="#929393" d="m30.012 35.905-1.582.919-1.592-.92 1.582-.919z" opacity="1" data-original="#929393"></path><path fill="#686868" d="M16.013 30.214v.174l-1.582.919v-.174z" opacity="1" data-original="#686868"></path><path fill="#4F4D4D" d="M14.431 31.133v.174l-1.592-.92v-.173z" opacity="1" data-original="#4f4d4d"></path><path fill="#929393" d="m16.013 30.214-1.582.919-1.592-.92 1.582-.919z" opacity="1" data-original="#929393"></path><path fill="#686868" d="M18.004 31.363v.174l-1.582.92v-.174z" opacity="1" data-original="#686868"></path><path fill="#4F4D4D" d="M16.423 32.283v.173l-1.597-.922v-.173z" opacity="1" data-original="#4f4d4d"></path><path fill="#929393" d="m18.004 31.363-1.581.92-1.597-.922 1.582-.92z" opacity="1" data-original="#929393"></path><path fill="#686868" d="M25.952 35.957v.174l-1.578.916v-.173z" opacity="1" data-original="#686868"></path><path fill="#4F4D4D" d="M24.375 36.874v.173l-7.558-4.363v-.174z" opacity="1" data-original="#4f4d4d"></path><path fill="#929393" d="m25.952 35.957-1.577.917-7.558-4.364 1.578-.916z" opacity="1" data-original="#929393"></path><path fill="#686868" d="M27.948 37.104v.174l-1.582.92v-.175z" opacity="1" data-original="#686868"></path><path fill="#4F4D4D" d="M26.366 38.023v.174l-1.593-.92v-.173z" opacity="1" data-original="#4f4d4d"></path><path fill="#929393" d="m27.948 37.104-1.582.92-1.592-.92 1.582-.919z" opacity="1" data-original="#929393"></path><path fill="#686868" d="M32.003 37.054v.174l-3.646 2.119v-.174z" opacity="1" data-original="#686868"></path><path fill="#4F4D4D" d="m28.358 39.173-.001.174-1.597-.922v-.174z" opacity="1" data-original="#4f4d4d"></path><path fill="#929393" d="m32.003 37.054-3.645 2.12-1.597-.923 3.646-2.118z" opacity="1" data-original="#929393"></path><path fill="#686868" d="M33.995 38.204v.174l-1.582.92v-.175z" opacity="1" data-original="#686868"></path><path fill="#4F4D4D" d="M32.413 39.123v.174l-1.597-.922v-.174z" opacity="1" data-original="#4f4d4d"></path><path fill="#929393" d="m33.995 38.204-1.582.92-1.597-.922 1.582-.92z" opacity="1" data-original="#929393"></path><path fill="#686868" d="M35.982 39.351v.174l-1.583.92v-.174z" opacity="1" data-original="#686868"></path><path fill="#4F4D4D" d="M34.4 40.27v.174l-1.593-.919v-.174z" opacity="1" data-original="#4f4d4d"></path><path fill="#929393" d="m35.982 39.351-1.582.92-1.592-.92 1.581-.919z" opacity="1" data-original="#929393"></path><path fill="#686868" d="M31.93 39.404v.173l-1.582.92v-.174z" opacity="1" data-original="#686868"></path><path fill="#4F4D4D" d="M30.349 40.323v.174l-1.597-.922V39.4z" opacity="1" data-original="#4f4d4d"></path><path fill="#929393" d="m31.93 39.404-1.581.919-1.597-.922 1.582-.92z" opacity="1" data-original="#929393"></path><path fill="#686868" d="M33.917 40.55v.175l-1.582.919v-.174z" opacity="1" data-original="#686868"></path><path fill="#4F4D4D" d="M32.336 41.47v.174l-1.593-.92v-.173z" opacity="1" data-original="#4f4d4d"></path><path fill="#929393" d="m33.917 40.55-1.581.92-1.592-.92 1.581-.918z" opacity="1" data-original="#929393"></path><path fill="#686868" d="M37.973 40.501v.174l-3.646 2.119v-.174z" opacity="1" data-original="#686868"></path><path fill="#4F4D4D" d="M34.327 42.62v.174l-1.597-.922v-.174z" opacity="1" data-original="#4f4d4d"></path><path fill="#929393" d="m37.973 40.501-3.646 2.119-1.597-.922 3.646-2.119z" opacity="1" data-original="#929393"></path><path fill="#B0AFB0" d="m13.941 36.865 3.398-1.979a.412.412 0 0 1 .396 0l6.833 3.948c.096.058.125.164.077.251a.142.142 0 0 0-.077-.106l-6.833-3.948a.412.412 0 0 0-.396 0l-3.397 1.97c-.04.018-.058.048-.078.086-.038-.077-.01-.174.077-.222z" opacity="1" data-original="#b0afb0"></path><path fill="#B9B9BA" d="M17.339 35.031a.412.412 0 0 1 .396 0l6.833 3.948c.048.029.067.058.077.106a.154.154 0 0 1-.077.097L21.17 41.16a.391.391 0 0 1-.386 0l-6.834-3.947c-.048-.03-.087-.078-.087-.126.02-.038.039-.068.077-.087z" opacity="1" data-original="#b9b9ba"></path><path fill="#475160" d="m19.85 5.182.002-1.235L25.95 7.47l-.006 1.234z" opacity="1" data-original="#475160"></path><path fill="#EF5A5A" d="m19.85 12.364.002-6.496L43.31 19.41l-.006 6.494z" opacity="1" data-original="#ef5a5a"></path><path fill="#A9C838" d="m19.853 18.529-.001-5.704 7.235 4.217-.004 5.702z" opacity="1" data-original="#a9c838"></path><g fill="#BFBFBF"><path d="m19.853 19.383-.001-.228 7.235 4.217-.004.226zM19.853 20.053l-.001-.228 7.235 4.217-.004.226zM19.853 20.723l-.001-.228 3.622 2.11-.004.227zM27.944 24.059l-.001-.229 7.235 4.218-.004.226zM27.944 24.729l-.001-.228 7.235 4.217-.004.226zM27.944 25.4l-.001-.229 3.622 2.11-.005.227zM36.035 28.735l-.001-.229 7.235 4.217-.004.227zM36.035 29.405l-.001-.229 7.235 4.217-.004.227zM36.035 30.075l-.001-.228 3.622 2.11-.005.227z" fill="#BFBFBF" opacity="1" data-original="#bfbfbf"></path></g><path fill="#FEE44B" d="m27.944 23.28-.001-5.704 7.235 4.217-.004 5.702z" opacity="1" data-original="#fee44b"></path><path fill="#69C4EF" d="m36.035 28.03-.001-5.704 7.235 4.217-.004 5.702z" opacity="1" data-original="#69c4ef"></path></g></svg>