<svg xmlns="http://www.w3.org/2000/svg" version="1.1" xmlns:xlink="http://www.w3.org/1999/xlink" width="42" height="42" x="0" y="0" viewBox="0 0 50 50" style="enable-background:new 0 0 512 512" xml:space="preserve" class=""><g><path fill="#C7C7C7" d="M42.7 32.7H7.3S.7 26.7 1 8.6C1-1 49-1 49 8.5c.3 18.2-6.3 24.2-6.3 24.2z" opacity="1" data-original="#c7c7c7"></path><path fill="#C7C7C7" d="M49 9.5v2.2c-1.1-1.1-3.4-2.1-6.6-2.9C37.8 7.7 31.6 7.1 25 7.1 13.3 7.1 3.7 9 1 11.7V8.5C1-1 49-1 49 8.5z" opacity="1" data-original="#c7c7c7"></path><path fill="#EFEFED" d="M42.7 30.9c0 9.8-7.9 17.7-17.7 17.7S7.3 40.7 7.3 30.9 15.2 13.2 25 13.2s17.7 7.9 17.7 17.7z" opacity="1" data-original="#efefed"></path><path fill="#E4E4E3" d="M7.3 30.9c-.5-4.7 1.2-9.6 4.5-13.2 1.7-1.8 3.7-3.2 6-4.2S22.5 12 25 12s4.9.5 7.2 1.5 4.3 2.4 6 4.2c3.4 3.6 5.1 8.5 4.5 13.2-.5-4.6-2.6-8.9-5.8-11.9s-7.5-4.7-11.9-4.7c-4.3 0-8.6 1.7-11.9 4.7-3.2 3-5.3 7.2-5.8 11.9z" opacity="1" data-original="#e4e4e3"></path><path fill="#444445" d="M38.5 30.9c0 7.5-6.1 13.5-13.5 13.5s-13.5-6.1-13.5-13.5 6-13.6 13.5-13.6 13.5 6.1 13.5 13.6z" opacity="1" data-original="#444445" class=""></path><circle cx="25" cy="30.9" r="7.2" fill="#696967" opacity="1" data-original="#696967"></circle><path fill="#59B1E3" d="M29.2 30.9c0 2.3-1.9 4.2-4.2 4.2s-4.2-1.9-4.2-4.2 1.9-4.2 4.2-4.2 4.2 1.9 4.2 4.2z" opacity="1" data-original="#59b1e3"></path><path fill="#444445" d="M27.4 30.9c0 1.3-1.1 2.4-2.4 2.4s-2.4-1.1-2.4-2.4 1.1-2.4 2.4-2.4 2.4 1.1 2.4 2.4z" opacity="1" data-original="#444445" class=""></path><g fill="#E4E4E3"><path d="M26.8 20.5c0 1-.8 1.8-1.8 1.8s-1.8-.8-1.8-1.8.8-1.8 1.8-1.8 1.8.8 1.8 1.8zM26.8 41.2c0 1-.8 1.8-1.8 1.8s-1.8-.8-1.8-1.8.8-1.8 1.8-1.8 1.8.8 1.8 1.8z" fill="#E4E4E3" opacity="1" data-original="#e4e4e3"></path><circle cx="32.3" cy="38.2" r="1.8" fill="#E4E4E3" opacity="1" data-original="#e4e4e3"></circle><path d="M37.1 30.9c0 1-.8 1.8-1.8 1.8s-1.8-.8-1.8-1.8.8-1.8 1.8-1.8 1.8.8 1.8 1.8z" fill="#E4E4E3" opacity="1" data-original="#e4e4e3"></path><circle cx="14.6" cy="30.9" r="1.8" fill="#E4E4E3" opacity="1" data-original="#e4e4e3"></circle><circle cx="17.7" cy="38.2" r="1.8" fill="#E4E4E3" opacity="1" data-original="#e4e4e3"></circle><circle cx="17.7" cy="23.5" r="1.8" fill="#E4E4E3" opacity="1" data-original="#e4e4e3"></circle><circle cx="32.3" cy="23.5" r="1.8" fill="#E4E4E3" opacity="1" data-original="#e4e4e3"></circle></g><path fill="#EFEFED" d="M25.3 29.6c0 .5-.4.9-.9.9s-.9-.4-.9-.9.4-.9.9-.9.9.4.9.9zM25.5 32.3c0 .4-.3.7-.7.7s-.7-.3-.7-.7.3-.7.7-.7.7.3.7.7z" opacity="1" data-original="#efefed"></path><path fill="#696967" d="M49 9.5v2.2c-1.1-1.1-3.4-2.1-6.6-2.9C37.8 7.7 31.6 7.1 25 7.1 13.3 7.1 3.7 9 1 11.7V9.5c4.6-3 14.9-4.2 24-4.2s19.4 1.2 24 4.2z" opacity="1" data-original="#696967"></path></g></svg>