<svg xmlns="http://www.w3.org/2000/svg" version="1.1" xmlns:xlink="http://www.w3.org/1999/xlink" width="42" height="42" x="0" y="0" viewBox="0 0 32 32" style="enable-background:new 0 0 512 512" xml:space="preserve"><g><path fill="#3A3A3A" d="M11.562 8.456H7.054v-1.69c0-.53.43-.96.96-.96h2.588c.53 0 .96.43.96.96zM24.946 8.456h-4.508v-1.69c0-.53.43-.96.96-.96h2.588c.53 0 .96.43.96.96z" opacity="1" data-original="#3a3a3a"></path><path fill="#EFEFEF" d="M16 9.431h.842c.677 0 1.334-.23 1.863-.651l.479-.382a3.789 3.789 0 0 1 2.362-.826h1.937c1.324 0 2.543.702 3.245 1.824a19.937 19.937 0 0 1 2.122 4.572c.592 1.871 2.52 7.961-.519 11.122l-.021.022c-1.343 1.381-3.592 1.427-5.075.198-.72-.596-1.521-1.494-2.35-2.838a3.976 3.976 0 0 0-3.38-1.876h-3.012c-1.373 0-2.66.708-3.38 1.876-.829 1.344-1.63 2.242-2.35 2.838-1.484 1.229-3.732 1.183-5.075-.198l-.021-.022c-3.038-3.16-1.11-9.25-.518-11.12.36-1.136.986-2.756 2.122-4.572a3.839 3.839 0 0 1 3.245-1.824h1.937c.858 0 1.691.291 2.362.826l.479.382c.53.422 1.186.651 1.863.651H16z" opacity="1" data-original="#efefef"></path><path fill="#DDDDDD" d="M28.33 25.09c0 .01-.01.02-.02.02-1.34 1.39-3.59 1.43-5.07.2-.72-.59-1.52-1.49-2.35-2.84a3.99 3.99 0 0 0-3.38-1.87h-3.02c-1.37 0-2.66.71-3.38 1.87-.83 1.35-1.63 2.25-2.35 2.84-1.48 1.23-3.73 1.19-5.07-.2-.01 0-.02-.01-.02-.02-1.41-1.46-1.75-3.56-1.65-5.57.27.76.67 1.46 1.25 2.06l.02.02c1.39 1.43 3.71 1.48 5.24.21.74-.62 1.57-1.54 2.43-2.93a4.09 4.09 0 0 1 3.49-1.94h3.1c1.42 0 2.75.73 3.49 1.94.86 1.39 1.69 2.31 2.43 2.93 1.53 1.27 3.85 1.22 5.24-.21l.02-.02c.58-.6.98-1.3 1.25-2.06.1 2.01-.24 4.11-1.65 5.57z" opacity="1" data-original="#dddddd"></path><path fill="#FFFFFF" d="M15.158 10.556a4.126 4.126 0 0 1-2.563-.896.375.375 0 0 0-.468.586 4.875 4.875 0 0 0 3.031 1.06.375.375 0 0 0 0-.75zM11.09 8.775a2.687 2.687 0 0 0-.636-.078.375.375 0 0 0 0 .75c.153 0 .306.019.457.056a.376.376 0 0 0 .454-.274.377.377 0 0 0-.275-.454z" opacity="1" data-original="#ffffff"></path><path fill="#3A3A3A" d="M10.771 13.761H9.736v-1.034a.475.475 0 0 0-.475-.475H7.698a.475.475 0 0 0-.475.475v1.034H6.189a.475.475 0 0 0-.475.475v1.563c0 .262.213.475.475.475h1.034v1.034c0 .262.213.475.475.475h1.563a.475.475 0 0 0 .475-.475v-1.034h1.034a.475.475 0 0 0 .475-.475v-1.563a.474.474 0 0 0-.474-.475z" opacity="1" data-original="#3a3a3a"></path><circle cx="25.358" cy="15.018" r=".929" fill="#E96565" opacity="1" data-original="#e96565"></circle><circle cx="20.708" cy="15.018" r=".929" fill="#6AC3EF" opacity="1" data-original="#6ac3ef"></circle><circle cx="23.033" cy="12.693" r=".929" fill="#FFD731" opacity="1" data-original="#ffd731"></circle><circle cx="23.033" cy="17.342" r=".929" fill="#55F990" opacity="1" data-original="#55f990"></circle><path fill="#DAF1F2" d="M16.803 18.271h-1.606a.641.641 0 0 1-.641-.641v-.518c0-.354.287-.641.641-.641h1.606c.354 0 .641.287.641.641v.518a.641.641 0 0 1-.641.641z" opacity="1" data-original="#daf1f2"></path><g fill="#1C0C12"><path d="M29.208 13.856a20.395 20.395 0 0 0-2.162-4.658 4.258 4.258 0 0 0-1.722-1.561V6.77c0-.736-.599-1.335-1.335-1.335H21.4c-.736 0-1.335.599-1.335 1.335v.71a4.176 4.176 0 0 0-1.114.625l-.479.382a2.624 2.624 0 0 1-1.63.57h-1.684a2.626 2.626 0 0 1-1.63-.57l-.479-.382a4.16 4.16 0 0 0-1.114-.625v-.71c0-.736-.599-1.335-1.335-1.335H8.01c-.736 0-1.335.599-1.335 1.335v.867a4.268 4.268 0 0 0-1.722 1.562 20.375 20.375 0 0 0-2.162 4.658c-.64 2.021-2.588 8.173.628 11.519a4.007 4.007 0 0 0 2.886 1.199c.95 0 1.912-.322 2.698-.973.845-.7 1.663-1.686 2.43-2.93a3.616 3.616 0 0 1 3.061-1.698h3.012c1.242 0 2.415.651 3.061 1.698.768 1.245 1.585 2.23 2.43 2.931 1.667 1.38 4.12 1.28 5.606-.25 3.193-3.324 1.246-9.475.605-11.497zM20.815 6.77c0-.323.262-.585.585-.585h2.59c.323 0 .585.262.585.585v.576a4.134 4.134 0 0 0-1.092-.148h-1.937a4.15 4.15 0 0 0-.731.068zm-13.39 0c0-.323.262-.585.585-.585h2.59c.323 0 .585.262.585.585v.496a4.16 4.16 0 0 0-.731-.068H8.517c-.374 0-.74.052-1.092.148zm20.617 18.083c-1.195 1.228-3.201 1.301-4.567.171-.782-.648-1.546-1.572-2.27-2.747a4.37 4.37 0 0 0-3.7-2.055h-3.012c-1.5 0-2.918.787-3.7 2.055-.724 1.175-1.488 2.099-2.27 2.747-1.366 1.132-3.374 1.057-4.586-.191-1.914-1.991-2.06-5.608-.432-10.749a19.636 19.636 0 0 1 2.083-4.487c.646-1.032 1.74-1.648 2.928-1.648h1.937c.77 0 1.525.264 2.128.744l.479.382a3.377 3.377 0 0 0 2.097.733h1.684a3.38 3.38 0 0 0 2.097-.733l.479-.382a3.43 3.43 0 0 1 2.128-.744h1.937c1.188 0 2.282.616 2.928 1.648a19.679 19.679 0 0 1 2.083 4.487c1.629 5.14 1.483 8.757-.451 10.769z" fill="#1C0C12" opacity="1" data-original="#1c0c12"></path><path d="M10.771 13.386h-.659v-.659a.85.85 0 0 0-.85-.85H7.698a.85.85 0 0 0-.85.85v.659h-.66a.85.85 0 0 0-.85.85v1.563c0 .469.381.85.85.85h.659v.659c0 .469.381.85.85.85H9.26a.85.85 0 0 0 .85-.85v-.659h.659a.85.85 0 0 0 .85-.85v-1.563a.848.848 0 0 0-.848-.85zm.1 2.413a.1.1 0 0 1-.1.1H9.736a.375.375 0 0 0-.375.375v1.034a.1.1 0 0 1-.1.1H7.698a.1.1 0 0 1-.1-.1v-1.034a.375.375 0 0 0-.375-.375H6.188a.1.1 0 0 1-.1-.1v-1.563a.1.1 0 0 1 .1-.1h1.034a.375.375 0 0 0 .375-.375v-1.034a.1.1 0 0 1 .1-.1H9.26a.1.1 0 0 1 .1.1v1.034c0 .207.168.375.375.375h1.034a.1.1 0 0 1 .1.1v1.563zM25.358 13.714c-.719 0-1.304.585-1.304 1.304s.585 1.304 1.304 1.304 1.304-.585 1.304-1.304-.585-1.304-1.304-1.304zm0 1.857a.555.555 0 0 1 0-1.108.555.555 0 0 1 0 1.108zM20.708 13.714c-.719 0-1.304.585-1.304 1.304s.585 1.304 1.304 1.304 1.304-.585 1.304-1.304-.585-1.304-1.304-1.304zm0 1.857a.555.555 0 0 1 0-1.108.555.555 0 0 1 0 1.108zM23.033 13.997c.719 0 1.304-.585 1.304-1.304s-.585-1.304-1.304-1.304-1.304.585-1.304 1.304.585 1.304 1.304 1.304zm0-1.858a.555.555 0 0 1 0 1.108.555.555 0 0 1 0-1.108zM23.033 16.039c-.719 0-1.304.585-1.304 1.304s.585 1.304 1.304 1.304 1.304-.585 1.304-1.304-.585-1.304-1.304-1.304zm0 1.857a.555.555 0 0 1 0-1.108.555.555 0 0 1 0 1.108zM16.803 16.095h-1.605c-.56 0-1.016.456-1.016 1.016v.519c0 .56.456 1.016 1.016 1.016h1.605c.56 0 1.016-.456 1.016-1.016v-.519c0-.56-.456-1.016-1.016-1.016zm.266 1.535a.266.266 0 0 1-.266.266h-1.605a.266.266 0 0 1-.266-.266v-.519c0-.147.119-.266.266-.266h1.605c.147 0 .266.119.266.266z" fill="#1C0C12" opacity="1" data-original="#1c0c12"></path></g></g></svg>