<svg xmlns="http://www.w3.org/2000/svg" version="1.1" xmlns:xlink="http://www.w3.org/1999/xlink" width="42" height="42" x="0" y="0" viewBox="0 0 38 38" style="enable-background:new 0 0 512 512" xml:space="preserve"><g><path fill="#FFB961" d="M29.616 19c0 8.836-1.907 16-4.26 16-2.35 0-4.257-7.164-4.257-16s1.907-16 4.258-16c2.352 0 4.259 7.164 4.259 16z" opacity="1" data-original="#ffb961"></path><path fill="#F3A250" d="M29.036 19.056c0 .95-.03 1.88-.07 2.77-.36 6.72-2.01 11.79-4 11.79-.25 0-.5-.08-.74-.25-1.89-1.24-3.32-7.17-3.32-14.31v-.01c0-8.03 1.82-14.54 4.06-14.54.63 0 1.22.5 1.74 1.4 1.38 2.33 2.33 7.34 2.33 13.15z" opacity="1" data-original="#f3a250"></path><path fill="#DD8536" d="M25.826 29.256c-.26.64-.59 1.26-.79 1.92-.23.75-.32 1.59-.81 2.19-1.89-1.24-3.32-7.17-3.32-14.31v-.01c0-8.03 1.82-14.54 4.06-14.54.63 0 1.22.5 1.74 1.4-.595.905-1.824 3.062-2.2 4.13-.69 2.05-.32 4.31.31 6.38.63 2.08 1.51 4.09 1.84 6.23.34 2.22.05 4.54-.83 6.61z" opacity="1" data-original="#dd853639" fill-opacity="0.224"></path><path fill="#DD8536" d="M28.961 21.828c-.36 6.717-2.01 11.79-3.991 11.79-2.244 0-4.064-6.518-4.064-14.559v-.015z" opacity="1" data-original="#dd853639" fill-opacity="0.224"></path><path fill="#FFD475" d="M25.357 35H15.338c-2.35 0-4.258-7.164-4.258-16s1.907-16 4.258-16h10.019c-2.351 0-4.258 7.164-4.258 16s1.907 16 4.258 16z" opacity="1" data-original="#ffd475"></path><path fill="#FFB961" d="M25.357 35h-6.778c-1.327-2.912-2.23-8.595-2.23-15.13 0-8.342 1.471-15.297 3.421-16.87h5.587c-2.351 0-4.258 7.164-4.258 16s1.907 16 4.258 16z" opacity="1" data-original="#ffb961"></path><path fill="#E3E7F0" d="M24.632 11.431v14.745a3.507 3.507 0 0 1-3.507 3.507h-9.233a3.507 3.507 0 0 1-3.508-3.507V11.431a3.507 3.507 0 0 1 3.508-3.507h9.233a3.507 3.507 0 0 1 3.507 3.507z" opacity="1" data-original="#e3e7f0"></path><path fill="#31445B" d="M23.281 11.294V26.04a2.692 2.692 0 0 1-2.688 2.688H11.36a2.692 2.692 0 0 1-2.688-2.688V11.294a2.692 2.692 0 0 1 2.688-2.688h9.233a2.692 2.692 0 0 1 2.688 2.688z" opacity="1" data-original="#31445b"></path><path fill="#1D2943" d="M11.36 28.318a2.281 2.281 0 0 1-2.278-2.278V11.294a2.281 2.281 0 0 1 2.278-2.278h9.233a2.281 2.281 0 0 1 2.279 2.278V26.04a2.281 2.281 0 0 1-2.279 2.278z" opacity="1" data-original="#1d2943"></path><path fill="#111D33" d="M24.962 14.45c0 1.182-.33 2.141-.738 2.141-.407 0-.735-.96-.735-2.142s.328-2.142.735-2.142.738.96.738 2.142z" opacity="1" data-original="#111d3320" fill-opacity="0.125"></path><path fill="#31445B" d="m24.889 15.665.385.645h-.87c-.206 0-.388-.28-.504-.715-.186-.686-.18-1.657.009-2.323.116-.417.295-.683.494-.683h.87l-.41.562c.257.812.22 1.904.026 2.514z" opacity="1" data-original="#31445b"></path><path fill="#1D2943" d="M25.187 13.272v.819h-1.41c.02-.307.066-.587.132-.82zM24.976 15.103v.492H23.9a3.624 3.624 0 0 1-.095-.492z" opacity="1" data-original="#1d2943"></path><path fill="#4C5C75" d="M25.914 14.45c0 1.026-.287 1.86-.64 1.86-.354 0-.64-.834-.64-1.86s.286-1.861.64-1.861c.353 0 .64.833.64 1.86z" opacity="1" data-original="#4c5c75"></path><g fill="#FFFFFF"><path d="M10.837 14.75h.491v-2.093l-.42.206c-.268.114-.372-.218-.167-.322.536-.27.575-.322.678-.322h.087c.111 0 .198.087.198.198v2.334h.41c.16 0 .235.195.125.302a.174.174 0 0 1-.126.05h-1.276c-.233 0-.228-.352 0-.352zM12.969 14.887c0-.87 1.652-1.165 1.652-1.842 0-.295-.17-.512-.652-.512-.248 0-.484.049-.707.148-.207.104-.332-.193-.145-.293.282-.14.587-.21.917-.21.882 0 1.381.936.467 1.656-.504.4-1.023.63-1.156.917h1.437c.229 0 .242.351 0 .351h-1.594c-.124 0-.22-.083-.22-.215zM15.812 12.983h.04c.31 0 .309.487 0 .487h-.04c-.31 0-.309-.487 0-.487zm0 1.644h.04c.31 0 .31.488 0 .488h-.04c-.309 0-.31-.488 0-.488zM17.1 14.75h.492v-2.093l-.421.206c-.268.114-.37-.219-.166-.322.536-.27.575-.322.678-.322h.087c.11 0 .198.087.198.198v2.334h.41c.23 0 .239.351 0 .351H17.1c-.235 0-.227-.351 0-.351zM19.142 13.66c0-.805.317-1.482 1.119-1.482.804 0 1.12.686 1.12 1.483 0 .798-.318 1.482-1.12 1.482-.806 0-1.12-.685-1.12-1.482zm1.863 0c0-.565-.18-1.132-.744-1.132-.564 0-.743.57-.743 1.133 0 .568.18 1.136.743 1.136.566 0 .744-.572.744-1.136z" fill="#FFFFFF" opacity="1" data-original="#ffffff"></path></g><g opacity=".06"><path fill="#FFFFFF" d="M23.281 11.294v.278L8.723 26.56c-.091-.454-.033-.008-.051-8.863l8.83-9.09h3.091a2.692 2.692 0 0 1 2.688 2.687zM23.281 13.14v4.8L13.202 28.318l-.398.41H11.36c-.884 0-1.67-.43-2.16-1.09L23.281 13.14z" opacity="1" data-original="#ffffff"></path></g></g></svg>