<svg xmlns="http://www.w3.org/2000/svg" version="1.1" xmlns:xlink="http://www.w3.org/1999/xlink" width="42" height="42" x="0" y="0" viewBox="0 0 512 512" style="enable-background:new 0 0 512 512" xml:space="preserve"><g><path d="M30.905 0C13.907 0 0 13.907 0 30.905v450.19C0 498.093 13.907 512 30.905 512h143.7V0h-143.7z" style="" fill="#EFEFEF" data-original="#efefef"></path><path d="M29.982 481.095V30.905C29.982 13.907 43.889 0 60.887 0H30.905C13.907 0 0 13.907 0 30.905v450.19C0 498.093 13.907 512 30.905 512h29.982c-16.998 0-30.905-13.907-30.905-30.905z" style="" fill="#DDDDDD" data-original="#dddddd"></path><path d="M481.095 512H174.606c-16.998 0-30.905-13.907-30.905-30.905V30.905C143.701 13.907 157.608 0 174.606 0h306.489C498.093 0 512 13.907 512 30.905v450.19C512 498.093 498.093 512 481.095 512z" style="" fill="#535454" data-original="#535454"></path><path d="M170.844 481.095V30.905C170.844 13.907 184.751 0 201.749 0h-27.143c-16.998 0-30.905 13.907-30.905 30.905v450.19c0 16.998 13.907 30.905 30.905 30.905h27.143c-16.998 0-30.905-13.907-30.905-30.905z" style="" fill="#444443" data-original="#444443"></path><path d="M477.58 45.239H178.121a7.277 7.277 0 0 0-7.277 7.277v385.299a7.277 7.277 0 0 0 7.277 7.277H477.58a7.277 7.277 0 0 0 7.277-7.277V52.516a7.278 7.278 0 0 0-7.277-7.277z" style="" fill="#A4D9F4" data-original="#a4d9f4"></path><path d="M201.749 437.815V52.516a7.277 7.277 0 0 1 7.277-7.277h-30.905a7.277 7.277 0 0 0-7.277 7.277v385.299a7.277 7.277 0 0 0 7.277 7.277h30.905a7.278 7.278 0 0 1-7.277-7.277z" style="" fill="#7CC9E8" data-original="#7cc9e8"></path><path d="M327.85 501.007c-12.214 0-22.15-9.936-22.15-22.15s9.937-22.15 22.15-22.15 22.15 9.936 22.15 22.15-9.936 22.15-22.15 22.15zm0-28.847a6.705 6.705 0 0 0-6.697 6.697 6.705 6.705 0 0 0 6.697 6.697 6.705 6.705 0 0 0 6.697-6.697 6.705 6.705 0 0 0-6.697-6.697z" style="" fill="#666666" data-original="#666666"></path><circle cx="44.41" cy="45.24" r="14.423" style="" fill="#666666" data-original="#666666"></circle><path d="M44.406 45.239c-2.668-4.621-2.476-10.098.006-14.412a14.343 14.343 0 0 0-7.218 1.921c-6.899 3.983-9.262 12.804-5.279 19.703s12.804 9.262 19.703 5.279a14.337 14.337 0 0 0 5.273-5.291c-4.978-.007-9.818-2.579-12.485-7.2z" style="" fill="#535454" data-original="#535454"></path><path d="M327.847 31.215c-.505 0-1.01-.051-1.504-.155a7.39 7.39 0 0 1-1.453-.443 6.924 6.924 0 0 1-1.329-.711 7.477 7.477 0 0 1-1.175-.958 7.03 7.03 0 0 1-.958-1.174 7.915 7.915 0 0 1-.711-1.329 8.031 8.031 0 0 1-.443-1.443 7.553 7.553 0 0 1 0-3.029 7.838 7.838 0 0 1 1.154-2.771c.278-.433.598-.824.958-1.174.361-.361.752-.68 1.175-.969a8.238 8.238 0 0 1 1.329-.711 8.238 8.238 0 0 1 1.453-.433c2.504-.515 5.182.31 6.975 2.113.35.35.68.741.958 1.174.278.413.515.865.711 1.329.196.464.34.958.443 1.442.093.505.144 1.01.144 1.515s-.051 1.009-.144 1.514a8.031 8.031 0 0 1-.443 1.443 7.876 7.876 0 0 1-1.669 2.503 7.779 7.779 0 0 1-5.471 2.267z" style="" fill="#666666" data-original="#666666"></path><path d="M477.58 45.239H178.121a7.277 7.277 0 0 0-7.277 7.277v20.718h314.013V52.516a7.278 7.278 0 0 0-7.277-7.277z" style="" fill="#70B5E8" data-original="#70b5e8"></path><path d="M209.026 45.239h-30.905a7.277 7.277 0 0 0-7.277 7.277v20.718h30.905V52.516a7.277 7.277 0 0 1 7.277-7.277z" style="" fill="#52A5D8" data-original="#52a5d8"></path><path d="M239.329 417.812h-20.676a3.457 3.457 0 0 1-3.446-3.446V393.69a3.457 3.457 0 0 1 3.446-3.446h20.676a3.457 3.457 0 0 1 3.446 3.446v20.676a3.456 3.456 0 0 1-3.446 3.446z" style="" fill="#92B620" data-original="#92b620"></path><path d="M305.235 417.812h-20.676a3.457 3.457 0 0 1-3.446-3.446V393.69a3.457 3.457 0 0 1 3.446-3.446h20.676a3.457 3.457 0 0 1 3.446 3.446v20.676a3.455 3.455 0 0 1-3.446 3.446zM371.141 417.812h-20.676a3.457 3.457 0 0 1-3.446-3.446V393.69a3.457 3.457 0 0 1 3.446-3.446h20.676a3.457 3.457 0 0 1 3.446 3.446v20.676a3.455 3.455 0 0 1-3.446 3.446z" style="" fill="#70B5E8" data-original="#70b5e8"></path><path d="M437.048 417.812h-20.676a3.457 3.457 0 0 1-3.446-3.446V393.69a3.457 3.457 0 0 1 3.446-3.446h20.676a3.457 3.457 0 0 1 3.446 3.446v20.676a3.456 3.456 0 0 1-3.446 3.446z" style="" fill="#FFB70D" data-original="#ffb70d"></path><path d="M239.329 309.454h-20.676a3.457 3.457 0 0 1-3.446-3.446v-20.676a3.457 3.457 0 0 1 3.446-3.446h20.676a3.457 3.457 0 0 1 3.446 3.446v20.676a3.456 3.456 0 0 1-3.446 3.446z" style="" fill="#898989" data-original="#898989"></path><path d="M305.235 309.454h-20.676a3.457 3.457 0 0 1-3.446-3.446v-20.676a3.457 3.457 0 0 1 3.446-3.446h20.676a3.457 3.457 0 0 1 3.446 3.446v20.676a3.455 3.455 0 0 1-3.446 3.446z" style="" fill="#F94A46" data-original="#f94a46"></path><path d="M371.141 309.454h-20.676a3.457 3.457 0 0 1-3.446-3.446v-20.676a3.457 3.457 0 0 1 3.446-3.446h20.676a3.457 3.457 0 0 1 3.446 3.446v20.676a3.455 3.455 0 0 1-3.446 3.446z" style="" fill="#70B5E8" data-original="#70b5e8"></path><path d="M437.048 309.454h-20.676a3.457 3.457 0 0 1-3.446-3.446v-20.676a3.457 3.457 0 0 1 3.446-3.446h20.676a3.457 3.457 0 0 1 3.446 3.446v20.676a3.456 3.456 0 0 1-3.446 3.446z" style="" fill="#FFB70D" data-original="#ffb70d"></path><path d="M239.329 253.886h-20.676a3.457 3.457 0 0 1-3.446-3.446v-20.676a3.457 3.457 0 0 1 3.446-3.446h20.676a3.457 3.457 0 0 1 3.446 3.446v20.676a3.457 3.457 0 0 1-3.446 3.446z" style="" fill="#EFEFEF" data-original="#efefef"></path><path d="M305.235 253.886h-20.676a3.457 3.457 0 0 1-3.446-3.446v-20.676a3.457 3.457 0 0 1 3.446-3.446h20.676a3.457 3.457 0 0 1 3.446 3.446v20.676a3.456 3.456 0 0 1-3.446 3.446z" style="" fill="#FFB70D" data-original="#ffb70d"></path><path d="M371.141 253.886h-20.676a3.457 3.457 0 0 1-3.446-3.446v-20.676a3.457 3.457 0 0 1 3.446-3.446h20.676a3.457 3.457 0 0 1 3.446 3.446v20.676a3.456 3.456 0 0 1-3.446 3.446z" style="" fill="#70B5E8" data-original="#70b5e8"></path><path d="M437.048 253.886h-20.676a3.457 3.457 0 0 1-3.446-3.446v-20.676a3.457 3.457 0 0 1 3.446-3.446h20.676a3.457 3.457 0 0 1 3.446 3.446v20.676a3.457 3.457 0 0 1-3.446 3.446z" style="" fill="#EFEFEF" data-original="#efefef"></path><path d="M239.329 198.317h-20.676a3.457 3.457 0 0 1-3.446-3.446v-20.676a3.457 3.457 0 0 1 3.446-3.446h20.676a3.457 3.457 0 0 1 3.446 3.446v20.676a3.457 3.457 0 0 1-3.446 3.446z" style="" fill="#DDA36F" data-original="#dda36f"></path><path d="M305.235 198.317h-20.676a3.457 3.457 0 0 1-3.446-3.446v-20.676a3.457 3.457 0 0 1 3.446-3.446h20.676a3.457 3.457 0 0 1 3.446 3.446v20.676a3.456 3.456 0 0 1-3.446 3.446z" style="" fill="#70B5E8" data-original="#70b5e8"></path><path d="M371.141 198.317h-20.676a3.457 3.457 0 0 1-3.446-3.446v-20.676a3.457 3.457 0 0 1 3.446-3.446h20.676a3.457 3.457 0 0 1 3.446 3.446v20.676a3.456 3.456 0 0 1-3.446 3.446z" style="" fill="#F9D698" data-original="#f9d698"></path><path d="M437.048 198.317h-20.676a3.457 3.457 0 0 1-3.446-3.446v-20.676a3.457 3.457 0 0 1 3.446-3.446h20.676a3.457 3.457 0 0 1 3.446 3.446v20.676a3.457 3.457 0 0 1-3.446 3.446z" style="" fill="#70B5E8" data-original="#70b5e8"></path><path d="M239.329 142.749h-20.676a3.457 3.457 0 0 1-3.446-3.446v-20.676a3.457 3.457 0 0 1 3.446-3.446h20.676a3.457 3.457 0 0 1 3.446 3.446v20.676a3.457 3.457 0 0 1-3.446 3.446z" style="" fill="#92B620" data-original="#92b620"></path><path d="M305.235 142.749h-20.676a3.457 3.457 0 0 1-3.446-3.446v-20.676a3.457 3.457 0 0 1 3.446-3.446h20.676a3.457 3.457 0 0 1 3.446 3.446v20.676a3.456 3.456 0 0 1-3.446 3.446z" style="" fill="#F94A46" data-original="#f94a46"></path><path d="M371.141 142.749h-20.676a3.457 3.457 0 0 1-3.446-3.446v-20.676a3.457 3.457 0 0 1 3.446-3.446h20.676a3.457 3.457 0 0 1 3.446 3.446v20.676a3.456 3.456 0 0 1-3.446 3.446z" style="" fill="#FFB70D" data-original="#ffb70d"></path><path d="M437.048 142.749h-20.676a3.457 3.457 0 0 1-3.446-3.446v-20.676a3.457 3.457 0 0 1 3.446-3.446h20.676a3.457 3.457 0 0 1 3.446 3.446v20.676a3.457 3.457 0 0 1-3.446 3.446z" style="" fill="#EFEFEF" data-original="#efefef"></path></g></svg>