<svg xmlns="http://www.w3.org/2000/svg" version="1.1" xmlns:xlink="http://www.w3.org/1999/xlink" width="42" height="42" x="0" y="0" viewBox="0 0 512 512" style="enable-background:new 0 0 512 512" xml:space="preserve" fill-rule="evenodd"><g><path fill="#E6E6E6" d="M44 430c0-1-1-1-1-2-1-3 0-7 3-8l78-32c3-2 6 0 8 3v2c14 6 24 18 30 32 7 15 7 32 0 48-6 15-18 27-34 34-7 3-16 5-24 5-24 0-48-15-58-39-6-14-6-29-2-43z" opacity="1" data-original="#e6e6e6"></path><path fill="#585858" d="M360 121h-1c-3-1-5-4-5-7 1-5 11-45 32-54 6-3 13-2 20 2 13 8 39 23 49 20 2 0 3-1 4-3 2-2 5-3 8-2 3 2 4 6 2 8-2 5-6 8-11 9-14 4-36-8-58-22-5-2-8-2-10-1-11 5-21 31-24 46-1 2-3 4-6 4z" opacity="1" data-original="#585858"></path><path fill="#454545" d="M360 159c-1 0-3-1-4-1l-37-32c-2-2-3-6-1-8l10-11c4-5 9-7 15-7 5 0 10 1 13 4l16 13c8 7 9 20 2 29l-9 11c-1 1-3 2-4 2z" opacity="1" data-original="#454545"></path><path fill="#333333" d="M374 432c-8 0-16-3-22-8L58 175c-15-12-17-34-5-49l96-113c7-8 17-13 27-13 8 0 16 3 22 8l295 249c14 12 16 34 4 49l-96 114c-7 7-16 12-27 12z" opacity="1" data-original="#333333"></path><g fill="#E6E6E6"><path d="M180 92c-2 0-4 0-6-2l-22-19c-4-3-5-9-2-13l18-21c2-2 5-4 7-4 3 0 5 1 6 3l23 19c2 2 3 4 3 6 1 3 0 5-2 7l-18 21c-1 2-4 3-7 3zM224 130c-2 0-4-1-6-3l-23-19c-1-2-3-4-3-6 0-3 1-5 2-7l18-21c2-2 5-4 7-4s5 1 6 3l23 19c2 2 3 4 3 6 1 3 0 5-2 7l-18 21c-1 2-4 4-7 4zM268 167c-2 0-4-1-6-3l-23-19c-2-2-3-4-3-6 0-3 1-5 2-7l18-21c2-2 4-3 7-3 2 0 4 0 6 2l23 19c4 3 4 9 1 13l-18 21c-2 2-4 4-7 4zM312 204c-2 0-4-1-6-3l-23-19c-2-1-3-4-3-6 0-3 1-5 2-7l18-21c2-2 4-3 7-3 2 0 4 0 6 2l23 19c4 3 4 9 1 13l-18 21c-2 2-4 4-7 4zM356 241c-2 0-4-1-6-2l-23-20c-4-3-4-9-1-13l18-21c2-2 4-3 7-3 2 0 4 0 6 2l23 19c4 3 4 9 1 13l-18 21c-2 3-4 4-7 4zM145 134c-2 0-4-1-6-2l-23-19c-3-4-4-10-1-13l18-22c2-2 5-3 7-3s5 1 6 2l23 20c4 3 5 9 1 12l-18 22c-1 2-4 3-7 3zM189 171c-2 0-4-1-6-2l-23-19c-2-2-3-4-3-7 0-2 1-5 2-6l18-22c2-2 4-3 7-3 2 0 4 1 6 2l23 20c2 1 3 3 3 6 0 2 0 5-2 7l-18 21c-2 2-4 3-7 3zM233 208c-2 0-4-1-6-2l-23-19c-2-2-3-4-3-7 0-2 1-4 2-6l18-22c2-2 4-3 7-3 2 0 4 1 6 2l23 20c2 1 3 3 3 6 0 2 0 5-2 7l-18 21c-2 2-4 3-7 3zM277 245c-2 0-4-1-6-2l-23-19c-4-4-4-9-1-13l18-22c2-2 4-3 7-3 2 0 4 1 6 2l23 20c2 1 3 4 3 6s-1 5-2 7l-18 21c-2 2-4 3-7 3z" fill="#E6E6E6" opacity="1" data-original="#e6e6e6"></path></g><path fill="#E63A45" d="M244 286c-3 0-5-1-7-3l-111-93c-4-4-5-11-1-15l15-18c2-3 6-4 9-4 2 0 5 1 6 2 1 0 1 0 1 1l110 92c2 2 4 5 4 8s-1 6-3 8l-15 18c-2 2-5 4-8 4z" opacity="1" data-original="#e63a45"></path><path fill="#E6E6E6" d="M321 282c-2 0-4 0-6-2l-23-19c-4-4-4-9-1-13l18-21c2-3 4-4 7-4 2 0 4 1 6 2l23 20c4 3 4 9 1 13l-18 21c-2 2-4 3-7 3zM287 323c-3 0-5-1-6-2l-23-20c-4-3-5-9-1-13l18-21c1-2 4-3 7-3 2 0 4 1 6 2l22 19c4 4 5 10 2 13l-18 22c-2 2-5 3-7 3zM364 319c-2 0-4-1-5-2l-23-19c-4-4-5-9-1-13l17-22c2-2 5-3 8-3 2 0 4 1 5 2l23 20c4 3 5 9 1 13l-18 21c-1 2-4 3-7 3zM330 360c-2 0-4-1-6-2l-23-20c-2-1-3-4-3-6s1-5 2-7l18-21c2-2 4-3 7-3 2 0 4 1 6 2l23 19c4 4 4 9 1 13l-18 21c-2 3-4 4-7 4z" opacity="1" data-original="#e6e6e6"></path><path fill="#FEE500" d="M445 314c-3 0-5 0-7-2l-67-56c-2-2-3-5-3-8-1-3 0-6 2-8l15-17c2-3 5-4 8-4s5 1 7 2l67 57c2 2 4 4 4 7s-1 6-3 8l-15 18c-2 2-5 3-8 3z" opacity="1" data-original="#fee500"></path><path fill="#E6E6E6" d="M111 175c-2 0-4-1-6-3l-23-19c-4-3-4-9-1-13l18-21c2-2 4-3 7-3 2 0 4 0 6 2l23 19c2 2 3 4 3 6 0 3 0 5-2 7l-18 21c-2 2-4 4-7 4z" opacity="1" data-original="#e6e6e6"></path><path fill="#E63A45" d="M375 398c-3 0-5-1-7-3l-22-18c-5-4-6-11-2-16l52-60c2-3 5-4 8-4s5 1 7 3l22 18c4 4 5 11 1 15l-51 61c-2 2-5 4-8 4z" opacity="1" data-original="#e63a45"></path><path fill="#B3B3B3" d="M77 481c-3 0-6-2-6-5 0 0-6-27-55-81-1 0-1 0-1-1-11-20-11-41 2-59 14-20 42-32 67-28 21 4 36 18 43 40v1c5 73 20 96 20 96 2 3 1 6-2 8-2 2-65 28-67 29h-1z" opacity="1" data-original="#b3b3b3"></path><path fill="#E6E6E6" d="M87 415c-2 0-4-1-5-3l-14-33c-1-3 0-6 3-8 3-1 7 0 8 3l14 33c1 3 0 7-3 8h-3zm-43-94c-7-5-34-30-32-51 0-7 4-13 10-17 13-8 38-23 40-34 1-2 0-3-1-5s-1-6 2-8 7-1 8 2c3 4 4 9 3 14-3 14-23 28-45 41-5 3-5 6-6 8 0 12 18 32 30 42v1h1v1l10 22c1 3-1 7-4 8 0 0-1 1-2 1-2 0-5-2-6-4z" opacity="1" data-original="#e6e6e6"></path><path fill="#E63A45" d="M72 383c-9 0-16-10-20-19-2-6-4-12-3-17 0-9 4-12 7-13 1 0 2-1 4-1 8 0 16 11 20 19 6 15 4 27-4 30-1 1-3 1-4 1z" opacity="1" data-original="#e63a45"></path></g></svg>