<svg xmlns="http://www.w3.org/2000/svg" version="1.1" xmlns:xlink="http://www.w3.org/1999/xlink" width="42" height="42" x="0" y="0" viewBox="0 0 512 512" style="enable-background:new 0 0 512 512" xml:space="preserve" fill-rule="evenodd"><g><path fill="#58535A" d="M256 502.91c-83.98 0-173.24-19.85-173.24-56.62 0-32.2 69.25-51.07 137.87-55.49 1.67-.12 3.28.47 4.49 1.61a5.977 5.977 0 0 1 1.9 4.37v24.44h57.96v-24.44c0-1.66.68-3.24 1.89-4.37a5.92 5.92 0 0 1 4.49-1.61c68.63 4.42 137.87 23.29 137.87 55.49 0 36.77-89.25 56.62-173.23 56.62z" opacity="1" data-original="#58535a"></path><path fill="#78747A" d="M290.98 433.22h-69.96c-3.31 0-6-2.69-6-6V361.7c0-3.31 2.69-6 6-6h69.96c3.31 0 6 2.69 6 6v65.52c0 3.31-2.69 6-6 6z" opacity="1" data-original="#78747a"></path><path fill="#58535A" d="M491.58 367.7H20.41C9.17 367.7.02 358.55.02 347.3V29.49c0-11.25 9.15-20.4 20.39-20.4h471.17c11.25 0 20.4 9.15 20.4 20.4V347.3c0 11.25-9.15 20.4-20.4 20.4z" opacity="1" data-original="#58535a"></path><path fill="#66D2F6" d="M493.98 278.71V29.49c0-1.31-1.08-2.4-2.4-2.4H20.41a2.42 2.42 0 0 0-2.4 2.4v249.22z" opacity="1" data-original="#66d2f6"></path><path fill="#78747A" d="M284.74 329.2h-57.48c-3.31 0-6-2.68-6-6 0-3.31 2.69-6 6-6h57.48c3.31 0 6 2.69 6 6 0 3.32-2.69 6-6 6z" opacity="1" data-original="#78747a"></path><path fill="#83DBF8" d="M493.98 278.71V29.49c0-1.31-1.08-2.4-2.4-2.4h-17.67L38.09 278.71z" opacity="1" data-original="#83dbf8"></path></g></svg>